<svg width="24" height="24" viewBox="0 0 24 24" fill="none" xmlns="http://www.w3.org/2000/svg">
<path d="M14.86 11.5C14.86 12.11 14.41 12.61 13.84 12.61C13.28 12.61 12.82 12.11 12.82 11.5C12.82 10.89 13.27 10.39 13.84 10.39C14.41 10.39 14.86 10.89 14.86 11.5ZM10.19 10.39C9.62 10.39 9.17 10.89 9.17 11.5C9.17 12.11 9.63 12.61 10.19 12.61C10.76 12.61 11.21 12.11 11.21 11.5C11.22 10.89 10.76 10.39 10.19 10.39ZM20.75 4.06V22C18.2307 19.7737 19.0364 20.5106 16.11 17.79L16.64 19.64H5.3C4.17 19.64 3.25 18.72 3.25 17.58V4.06C3.25 2.92 4.17 2 5.3 2H18.7C19.83 2 20.75 2.92 20.75 4.06ZM17.9 13.54C17.9 10.32 16.46 7.71 16.46 7.71C15.02 6.63 13.65 6.66 13.65 6.66L13.51 6.82C15.21 7.34 16 8.09 16 8.09C13.6246 6.78809 10.8342 6.78785 8.53 7.8C8.16 7.97 7.94 8.09 7.94 8.09C7.94 8.09 8.77 7.3 10.57 6.78L10.47 6.66C10.47 6.66 9.1 6.63 7.66 7.71C7.66 7.71 6.22 10.32 6.22 13.54C6.22 13.54 7.06 14.99 9.27 15.06C9.27 15.06 9.64 14.61 9.94 14.23C8.67 13.85 8.19 13.05 8.19 13.05C8.33711 13.153 8.57969 13.2864 8.6 13.3C10.2879 14.2452 12.6855 14.5549 14.84 13.65C15.19 13.52 15.58 13.33 15.99 13.06C15.99 13.06 15.49 13.88 14.18 14.25C14.48 14.63 14.84 15.06 14.84 15.06C17.05 14.99 17.9 13.54 17.9 13.54Z" fill="black"/>
</svg>
