<svg viewBox="0 0 24 24" fill="none" xmlns="http://www.w3.org/2000/svg">
  <path d="M8.68952 17.9515C8.68952 18.0321 8.59677 18.0967 8.47984 18.0967C8.34677 18.1088 8.25403 18.0442 8.25403 17.9515C8.25403 17.8708 8.34677 17.8063 8.46371 17.8063C8.58468 17.7942 8.68952 17.8587 8.68952 17.9515ZM7.43548 17.77C7.40726 17.8507 7.4879 17.9434 7.60887 17.9676C7.71371 18.0079 7.83468 17.9676 7.85887 17.887C7.88306 17.8063 7.80645 17.7136 7.68548 17.6773C7.58065 17.6491 7.46371 17.6894 7.43548 17.77ZM9.21774 17.7015C9.10081 17.7297 9.02016 17.8063 9.03226 17.8991C9.04435 17.9797 9.14919 18.0321 9.27016 18.0039C9.3871 17.9757 9.46774 17.8991 9.45564 17.8184C9.44355 17.7418 9.33468 17.6894 9.21774 17.7015ZM11.871 2.24988C6.27823 2.24988 2 6.49585 2 12.0886C2 16.5604 4.81452 20.387 8.83468 21.7338C9.35081 21.8265 9.53226 21.5079 9.53226 21.2458C9.53226 20.9958 9.52016 19.6168 9.52016 18.77C9.52016 18.77 6.69758 19.3749 6.10484 17.5684C6.10484 17.5684 5.64516 16.395 4.98387 16.0926C4.98387 16.0926 4.06048 15.4596 5.04839 15.4717C5.04839 15.4717 6.05242 15.5523 6.60484 16.512C7.4879 18.0684 8.96774 17.6208 9.54435 17.3547C9.6371 16.7096 9.89919 16.262 10.1895 15.9958C7.93548 15.7458 5.66129 15.4192 5.66129 11.5402C5.66129 10.4313 5.96774 9.87488 6.6129 9.1652C6.50806 8.9031 6.16532 7.82246 6.71774 6.4273C7.56048 6.1652 9.5 7.51601 9.5 7.51601C10.3065 7.2902 11.1734 7.17327 12.0323 7.17327C12.8911 7.17327 13.7581 7.2902 14.5645 7.51601C14.5645 7.51601 16.504 6.16117 17.3468 6.4273C17.8992 7.82649 17.5565 8.9031 17.4516 9.1652C18.0968 9.87891 18.4919 10.4354 18.4919 11.5402C18.4919 15.4313 16.1169 15.7418 13.8629 15.9958C14.2339 16.3144 14.5484 16.9192 14.5484 17.8668C14.5484 19.2257 14.5363 20.9071 14.5363 21.2378C14.5363 21.4999 14.7218 21.8184 15.2339 21.7257C19.2661 20.387 22 16.5604 22 12.0886C22 6.49585 17.4637 2.24988 11.871 2.24988ZM5.91935 16.1571C5.86694 16.1975 5.87903 16.2902 5.94758 16.3668C6.0121 16.4313 6.10484 16.4596 6.15726 16.4071C6.20968 16.3668 6.19758 16.2741 6.12903 16.1975C6.06452 16.1329 5.97177 16.1047 5.91935 16.1571ZM5.48387 15.8305C5.45565 15.8829 5.49597 15.9475 5.57661 15.9878C5.64113 16.0281 5.72177 16.016 5.75 15.9596C5.77823 15.9071 5.7379 15.8426 5.65726 15.8023C5.57661 15.7781 5.5121 15.7902 5.48387 15.8305ZM6.79032 17.266C6.72581 17.3184 6.75 17.4394 6.84274 17.516C6.93548 17.6088 7.05242 17.6208 7.10484 17.5563C7.15726 17.5039 7.13306 17.3829 7.05242 17.3063C6.96371 17.2136 6.84274 17.2015 6.79032 17.266ZM6.33065 16.6733C6.26613 16.7136 6.26613 16.8184 6.33065 16.9112C6.39516 17.0039 6.50403 17.0442 6.55645 17.0039C6.62097 16.9515 6.62097 16.8467 6.55645 16.7539C6.5 16.6612 6.39516 16.6208 6.33065 16.6733Z" fill="black" />
</svg>