<svg viewBox="0 0 24 24" fill="none" xmlns="http://www.w3.org/2000/svg">
  <path d="M7.71788 19.141C7.71788 20.72 6.43789 22 4.85892 22C3.27995 22 2 20.72 2 19.141C2 17.562 3.28 16.282 4.85896 16.282C6.43793 16.282 7.71788 17.5621 7.71788 19.141ZM15.5598 21.2504C15.1869 14.3486 9.65873 8.81348 2.7496 8.44013C2.34178 8.41808 2 8.74576 2 9.15415V11.3001C2 11.6757 2.28973 11.9908 2.6646 12.0152C7.65708 12.3403 11.6589 16.3322 11.9847 21.3353C12.0092 21.7102 12.3242 21.9999 12.6998 21.9999H14.8458C15.2542 22 15.5819 21.6582 15.5598 21.2504ZM21.9995 21.2632C21.6248 10.8249 13.2261 2.37703 2.73674 2.00046C2.33362 1.986 2 2.31167 2 2.71502V4.8609C2 5.24594 2.30513 5.55934 2.68986 5.57514C11.2246 5.92509 18.0749 12.7767 18.4249 21.3101C18.4406 21.6949 18.754 22 19.1391 22H21.285C21.6883 22 22.014 21.6663 21.9995 21.2632Z" fill="black" />
</svg>