<svg viewBox="0 0 24 24" fill="none" xmlns="http://www.w3.org/2000/svg">
  <path d="M6.20179 14.6384C6.20179 15.7946 5.25714 16.7393 4.10089 16.7393C2.94464 16.7393 2 15.7946 2 14.6384C2 13.4821 2.94464 12.5375 4.10089 12.5375H6.20179V14.6384ZM7.26071 14.6384C7.26071 13.4821 8.20536 12.5375 9.36161 12.5375C10.5179 12.5375 11.4625 13.4821 11.4625 14.6384V19.8991C11.4625 21.0554 10.5179 22 9.36161 22C8.20536 22 7.26071 21.0554 7.26071 19.8991V14.6384ZM9.36161 6.20179C8.20536 6.20179 7.26071 5.25714 7.26071 4.10089C7.26071 2.94464 8.20536 2 9.36161 2C10.5179 2 11.4625 2.94464 11.4625 4.10089V6.20179H9.36161ZM9.36161 7.26071C10.5179 7.26071 11.4625 8.20536 11.4625 9.36161C11.4625 10.5179 10.5179 11.4625 9.36161 11.4625H4.10089C2.94464 11.4625 2 10.5179 2 9.36161C2 8.20536 2.94464 7.26071 4.10089 7.26071H9.36161ZM17.7982 9.36161C17.7982 8.20536 18.7429 7.26071 19.8991 7.26071C21.0554 7.26071 22 8.20536 22 9.36161C22 10.5179 21.0554 11.4625 19.8991 11.4625H17.7982V9.36161ZM16.7393 9.36161C16.7393 10.5179 15.7946 11.4625 14.6384 11.4625C13.4821 11.4625 12.5375 10.5179 12.5375 9.36161V4.10089C12.5375 2.94464 13.4821 2 14.6384 2C15.7946 2 16.7393 2.94464 16.7393 4.10089V9.36161ZM14.6384 17.7982C15.7946 17.7982 16.7393 18.7429 16.7393 19.8991C16.7393 21.0554 15.7946 22 14.6384 22C13.4821 22 12.5375 21.0554 12.5375 19.8991V17.7982H14.6384ZM14.6384 16.7393C13.4821 16.7393 12.5375 15.7946 12.5375 14.6384C12.5375 13.4821 13.4821 12.5375 14.6384 12.5375H19.8991C21.0554 12.5375 22 13.4821 22 14.6384C22 15.7946 21.0554 16.7393 19.8991 16.7393H14.6384Z" fill="black" />
</svg>