<svg xmlns="http://www.w3.org/2000/svg" width="24" height="24" viewBox="0 0 24 24" fill="none">
  <path d="M4.85714 2C3.28125 2 2 3.28125 2 4.85714V19.1429C2 20.7188 3.28125 22 4.85714 22H19.1429C20.7188 22 22 20.7188 22 19.1429V4.85714C22 3.28125 20.7188 2 19.1429 2H4.85714ZM18.1205 5.75L13.4866 11.0446L18.9375 18.25H14.6696L11.3304 13.8795L7.50446 18.25H5.38393L10.3393 12.5848L5.11161 5.75H9.48661L12.5089 9.74554L16 5.75H18.1205ZM16.433 16.9821L8.84821 6.95089H7.58482L15.2545 16.9821H16.4286H16.433Z" fill="black"/>
</svg>