<svg viewBox="0 0 24 24" fill="none" xmlns="http://www.w3.org/2000/svg">
  <path d="M21.5821 7.16905C21.3521 6.30296 20.6744 5.62086 19.8139 5.38938C18.2542 4.96875 12 4.96875 12 4.96875C12 4.96875 5.74586 4.96875 4.18613 5.38938C3.32565 5.6209 2.64794 6.30296 2.41792 7.16905C2 8.73889 2 12.0142 2 12.0142C2 12.0142 2 15.2895 2.41792 16.8593C2.64794 17.7254 3.32565 18.3791 4.18613 18.6106C5.74586 19.0312 12 19.0312 12 19.0312C12 19.0312 18.2541 19.0312 19.8139 18.6106C20.6744 18.3791 21.3521 17.7254 21.5821 16.8593C22 15.2895 22 12.0142 22 12.0142C22 12.0142 22 8.73889 21.5821 7.16905ZM9.95453 14.9879V9.04046L15.1818 12.0143L9.95453 14.9879Z" fill="black" />
</svg>