<svg viewBox="0 0 224 224" fill="none" xmlns="http://www.w3.org/2000/svg">
<path d="M206.955 1.27151C215.791 1.27151 222.955 8.43497 222.955 17.2715V206.819C222.955 215.656 215.791 222.819 206.955 222.819H17.4072C8.57067 222.819 1.40723 215.656 1.40723 206.819V17.2715C1.40723 8.43496 8.57068 1.27151 17.4072 1.27151H206.955Z" stroke="#FFB200" stroke-width="2"/>
<path d="M113.991 205.306C101.467 205.306 94.0803 199.049 90.1334 191.346L102.135 184.073C103.277 186.07 104.479 187.999 106.019 189.476C107.839 191.221 110.119 192.328 113.267 192.328C116.129 192.328 118.713 191.77 120.553 189.896C122.385 188.031 123.272 185.075 123.272 180.784V124.72H138.061V181.01C138.061 189.501 135.579 195.531 131.423 199.447C127.257 203.372 121.267 205.306 113.991 205.306Z" stroke="#FFB200" stroke-width="2"/>
<path d="M178.017 171.089L178.011 171.086L173.803 169.276L173.799 169.275C167.783 166.715 162.911 163.879 159.54 160.074C156.199 156.303 154.27 151.512 154.27 144.899C154.27 138.873 156.563 133.599 160.62 129.826C164.681 126.051 170.569 123.725 177.842 123.725C183.068 123.725 187.473 124.633 191.223 126.675C194.747 128.594 197.76 131.551 200.343 135.84L188.95 143.133C187.613 140.941 186.18 139.296 184.495 138.172C182.566 136.886 180.393 136.341 177.842 136.341C175.163 136.341 172.905 137.193 171.307 138.68C169.706 140.169 168.833 142.239 168.833 144.537C168.833 147.312 169.72 149.352 171.621 151.08C173.44 152.734 176.17 154.081 179.752 155.636L179.755 155.637L183.964 157.447L183.965 157.448C191.067 160.491 196.481 163.513 200.127 167.431C203.73 171.302 205.668 176.117 205.668 182.911C205.668 190.179 202.831 195.734 198.12 199.495C193.381 203.277 186.664 205.306 178.838 205.306C164 205.306 154.393 198.509 149.531 189.541L161.533 182.586C163.25 185.256 165.265 187.619 167.822 189.36C170.657 191.29 174.103 192.418 178.431 192.418C182.072 192.418 185.148 191.509 187.342 189.879C189.556 188.235 190.834 185.876 190.834 183.137C190.834 181.561 190.519 180.194 189.888 178.982C189.258 177.774 188.341 176.772 187.21 175.885C184.989 174.143 181.798 172.744 178.017 171.089Z" stroke="#FFB200" stroke-width="2"/>
<path d="M143.998 109.145V86.7083H151.546V109.145H143.998Z" stroke="#FFB200" stroke-width="2"/>
<path d="M124.63 109.145V86.7083H132.178V109.145H124.63Z" stroke="#FFB200" stroke-width="2"/>
<path d="M105.307 109.145V86.7083H112.855V109.145H105.307Z" stroke="#FFB200" stroke-width="2"/>
<path d="M47.2933 109.145V86.7083H54.8416V109.145H47.2933Z" stroke="#FFB200" stroke-width="2"/>
<path d="M66.6161 109.145V86.7083H74.1644V109.145H66.6161Z" stroke="#FFB200" stroke-width="2"/>
<path d="M27.9253 109.145V86.7083H35.4735V109.145H27.9253Z" stroke="#FFB200" stroke-width="2"/>
<path d="M143.998 76.6081V54.1717H151.546V76.6081H143.998Z" stroke="#FFB200" stroke-width="2"/>
<path d="M124.63 76.6081V54.1717H132.178V76.6081H124.63Z" stroke="#FFB200" stroke-width="2"/>
<path d="M85.9843 76.6081V54.1717H93.5325V76.6081H85.9843Z" stroke="#FFB200" stroke-width="2"/>
<path d="M105.307 76.6081V54.1717H112.855V76.6081H105.307Z" stroke="#FFB200" stroke-width="2"/>
<path d="M47.2933 76.6081V54.1717H54.8416V76.6081H47.2933Z" stroke="#FFB200" stroke-width="2"/>
<path d="M47.3092 21.8162H54.6302L97.4077 108.964H90.0424L47.3092 21.8162Z" stroke="#FFB200" stroke-width="2"/>
<path d="M27.9253 76.6081V54.1717H35.4735V76.6081H27.9253Z" stroke="#FFB200" stroke-width="2"/>
<path d="M27.9253 44.0715V21.6352H35.4735V44.0715H27.9253Z" stroke="#FFB200" stroke-width="2"/>
<path d="M143.998 109.145V86.7083H151.546V109.145H143.998Z" stroke="#FFB200" stroke-width="2"/>
<path d="M124.63 109.145V86.7083H132.178V109.145H124.63Z" stroke="#FFB200" stroke-width="2"/>
<path d="M105.307 109.145V86.7083H112.855V109.145H105.307Z" stroke="#FFB200" stroke-width="2"/>
<path d="M47.2933 109.145V86.7083H54.8416V109.145H47.2933Z" stroke="#FFB200" stroke-width="2"/>
<path d="M66.6161 109.145V86.7083H74.1644V109.145H66.6161Z" stroke="#FFB200" stroke-width="2"/>
<path d="M27.9253 109.145V86.7083H35.4735V109.145H27.9253Z" stroke="#FFB200" stroke-width="2"/>
<path d="M143.998 76.6081V54.1717H151.546V76.6081H143.998Z" stroke="#FFB200" stroke-width="2"/>
<path d="M124.63 76.6081V54.1717H132.178V76.6081H124.63Z" stroke="#FFB200" stroke-width="2"/>
<path d="M85.9843 76.6081V54.1717H93.5325V76.6081H85.9843Z" stroke="#FFB200" stroke-width="2"/>
<path d="M105.307 76.6081V54.1717H112.855V76.6081H105.307Z" stroke="#FFB200" stroke-width="2"/>
<path d="M47.2933 76.6081V54.1717H54.8416V76.6081H47.2933Z" stroke="#FFB200" stroke-width="2"/>
<path d="M47.3092 21.8162H54.6302L97.4077 108.964H90.0424L47.3092 21.8162Z" stroke="#FFB200" stroke-width="2"/>
<path d="M27.9253 76.6081V54.1717H35.4735V76.6081H27.9253Z" stroke="#FFB200" stroke-width="2"/>
<path d="M27.9253 44.0715V21.6352H35.4735V44.0715H27.9253Z" stroke="#FFB200" stroke-width="2"/>
</svg>
