<svg width="32" height="32" viewBox="0 0 32 32" fill="none" xmlns="http://www.w3.org/2000/svg">
<path d="M28.6024 16.0703H26.8121V20.6521H28.6024V16.0703Z" fill="#121212"/>
<path d="M24.9709 16.0703H23.1806V20.6521H24.9709V16.0703Z" fill="#121212"/>
<path d="M21.3479 16.0703H19.5576V20.6521H21.3479V16.0703Z" fill="#121212"/>
<path d="M10.4703 16.0703H8.67999V20.6521H10.4703V16.0703Z" fill="#121212"/>
<path d="M14.0933 16.0703H12.303V20.6521H14.0933V16.0703Z" fill="#121212"/>
<path d="M6.83876 16.0703H5.04846V20.6521H6.83876V16.0703Z" fill="#121212"/>
<path d="M28.6024 9.96973H26.8121V14.5515H28.6024V9.96973Z" fill="#121212"/>
<path d="M24.9709 9.96973H23.1806V14.5515H24.9709V9.96973Z" fill="#121212"/>
<path d="M17.7249 9.96973H15.9346V14.5515H17.7249V9.96973Z" fill="#121212"/>
<path d="M21.3479 9.96973H19.5576V14.5515H21.3479V9.96973Z" fill="#121212"/>
<path d="M10.4703 9.96973H8.67999V14.5515H10.4703V9.96973Z" fill="#121212"/>
<path d="M18.5649 20.6182L10.36 3.90308H8.5697L16.7661 20.6182H18.5649Z" fill="#121212"/>
<path d="M6.83876 9.96973H5.04846V14.5515H6.83876V9.96973Z" fill="#121212"/>
<path d="M6.83876 3.86914H5.04846V8.45096H6.83876V3.86914Z" fill="#121212"/>
<path d="M28.6024 16.0703H26.8121V20.6521H28.6024V16.0703Z" fill="#121212"/>
<path d="M24.9709 16.0703H23.1806V20.6521H24.9709V16.0703Z" fill="#121212"/>
<path d="M21.3479 16.0703H19.5576V20.6521H21.3479V16.0703Z" fill="#121212"/>
<path d="M10.4703 16.0703H8.67999V20.6521H10.4703V16.0703Z" fill="#121212"/>
<path d="M14.0933 16.0703H12.303V20.6521H14.0933V16.0703Z" fill="#121212"/>
<path d="M6.83876 16.0703H5.04846V20.6521H6.83876V16.0703Z" fill="#121212"/>
<path d="M28.6024 9.96973H26.8121V14.5515H28.6024V9.96973Z" fill="#121212"/>
<path d="M24.9709 9.96973H23.1806V14.5515H24.9709V9.96973Z" fill="#121212"/>
<path d="M17.7249 9.96973H15.9346V14.5515H17.7249V9.96973Z" fill="#121212"/>
<path d="M21.3479 9.96973H19.5576V14.5515H21.3479V9.96973Z" fill="#121212"/>
<path d="M10.4703 9.96973H8.67999V14.5515H10.4703V9.96973Z" fill="#121212"/>
<path d="M18.5649 20.6182L10.36 3.90308H8.5697L16.7661 20.6182H18.5649Z" fill="#121212"/>
<path d="M6.83876 9.96973H5.04846V14.5515H6.83876V9.96973Z" fill="#121212"/>
<path d="M6.83876 3.86914H5.04846V8.45096H6.83876V3.86914Z" fill="#121212"/>
</svg>
