<svg viewBox="0 0 44 44" fill="none" xmlns="http://www.w3.org/2000/svg">
  <rect width="44" height="44" rx="5" fill="#121212" />
  <path d="M25.7909 22L31.4767 16.3142C32.1744 15.6165 32.1744 14.4852 31.4767 13.7869L30.2131 12.5233C29.5153 11.8256 28.3841 11.8256 27.6858 12.5233L22 18.2091L16.3142 12.5233C15.6165 11.8256 14.4852 11.8256 13.7869 12.5233L12.5233 13.7869C11.8256 14.4847 11.8256 15.6159 12.5233 16.3142L18.2091 22L12.5233 27.6858C11.8256 28.3835 11.8256 29.5148 12.5233 30.2131L13.7869 31.4767C14.4847 32.1744 15.6165 32.1744 16.3142 31.4767L22 25.7909L27.6858 31.4767C28.3835 32.1744 29.5153 32.1744 30.2131 31.4767L31.4767 30.2131C32.1744 29.5153 32.1744 28.3841 31.4767 27.6858L25.7909 22Z" fill="#FFB200" />
</svg>