<svg viewBox="0 0 44 44" fill="none" xmlns="http://www.w3.org/2000/svg">
  <rect width="44" height="44" rx="5" fill="#121212" />
  <path d="M7.375 33C6.61561 33 6 32.3844 6 31.625C6 30.8656 6.61561 30.25 7.375 30.25H36.7083C37.4677 30.25 38.0833 30.8656 38.0833 31.625C38.0833 32.3844 37.4677 33 36.7083 33H7.375ZM7.375 23.375C6.61561 23.375 6 22.7594 6 22C6 21.2406 6.61561 20.625 7.375 20.625H36.7083C37.4677 20.625 38.0833 21.2406 38.0833 22C38.0833 22.7594 37.4677 23.375 36.7083 23.375H7.375ZM7.375 13.75C6.61561 13.75 6 13.1344 6 12.375C6 11.6156 6.61561 11 7.375 11H36.7083C37.4677 11 38.0833 11.6156 38.0833 12.375C38.0833 13.1344 37.4677 13.75 36.7083 13.75H7.375Z" fill="#FFB200" />
</svg>